<?xml version="1.0" encoding="utf-8"?>
<!-- Generator: Adobe Illustrator 23.0.3, SVG Export Plug-In . SVG Version: 6.00 Build 0)  -->
<svg version="1.1" id="Icons" xmlns="http://www.w3.org/2000/svg" xmlns:xlink="http://www.w3.org/1999/xlink" x="0px" y="0px"
	 viewBox="0 0 32 32" style="enable-background:new 0 0 32 32;" xml:space="preserve">
<style type="text/css">
	.st0{fill:none;stroke:#000000;stroke-width:2;stroke-linecap:round;stroke-linejoin:round;stroke-miterlimit:10;}
</style>
<g>
	<path d="M22.5,20.9l5,3C27.6,24,27.8,24,28,24c0.2,0,0.3,0,0.5-0.1c0.3-0.2,0.5-0.5,0.5-0.9V9c0-0.4-0.2-0.7-0.5-0.9
		c-0.3-0.2-0.7-0.2-1,0l-5,3C22.2,11.3,22,11.6,22,12v8C22,20.4,22.2,20.7,22.5,20.9z"/>
	<path d="M29.7,28.3L20,18.6V11c0-1.7-1.3-3-3-3H9.4L3.7,2.3c-0.4-0.4-1-0.4-1.4,0s-0.4,1,0,1.4l26,26c0.2,0.2,0.5,0.3,0.7,0.3
		s0.5-0.1,0.7-0.3C30.1,29.3,30.1,28.7,29.7,28.3z"/>
	<path d="M3,11v10c0,1.7,1.3,3,3,3h11c0.8,0,1.5-0.3,2-0.8L4.3,8.5C3.5,9.1,3,10,3,11z"/>
</g>
</svg>
